<?xml version="1.0" encoding="UTF-8"?>
<svg width="206px" height="90px" viewBox="0 0 206 90" version="1.1" xmlns="http://www.w3.org/2000/svg" xmlns:xlink="http://www.w3.org/1999/xlink">
    <!-- Generator: Sketch 50.2 (55047) - http://www.bohemiancoding.com/sketch -->
    <title>Group 11 Copy</title>
    <desc>Created with Sketch.</desc>
    <defs>
        <radialGradient cx="42.9775939%" cy="37.2628945%" fx="42.9775939%" fy="37.2628945%" r="63.3860162%" gradientTransform="translate(0.429776,0.372629),scale(1.000000,0.700000),rotate(40.201258),translate(-0.429776,-0.372629)" id="radialGradient-1">
            <stop stop-color="#FFFFFF" stop-opacity="0.5" offset="0%"></stop>
            <stop stop-color="#000000" stop-opacity="0.5" offset="100%"></stop>
        </radialGradient>
        <rect id="path-2" x="0" y="0" width="42" height="60" rx="6"></rect>
        <radialGradient cx="42.9775939%" cy="37.2628945%" fx="42.9775939%" fy="37.2628945%" r="64.0956729%" gradientTransform="translate(0.429776,0.372629),scale(1.000000,0.681818),rotate(40.946190),translate(-0.429776,-0.372629)" id="radialGradient-3">
            <stop stop-color="#FFFFFF" stop-opacity="0.5" offset="0%"></stop>
            <stop stop-color="#000000" stop-opacity="0.5" offset="100%"></stop>
        </radialGradient>
        <rect id="path-4" x="6" y="10" width="30" height="44" rx="1"></rect>
        <rect id="path-5" x="0" y="0" width="42" height="60" rx="6"></rect>
        <rect id="path-6" x="6" y="10" width="30" height="44" rx="1"></rect>
        <radialGradient cx="42.9775939%" cy="37.2628945%" fx="42.9775939%" fy="37.2628945%" r="60.8254444%" gradientTransform="translate(0.429776,0.372629),scale(1.000000,0.777778),rotate(37.256359),translate(-0.429776,-0.372629)" id="radialGradient-7">
            <stop stop-color="#FFFFFF" stop-opacity="0.5" offset="0%"></stop>
            <stop stop-color="#000000" stop-opacity="0.5" offset="100%"></stop>
        </radialGradient>
        <rect id="path-8" x="0" y="0" width="70" height="90" rx="6"></rect>
        <radialGradient cx="42.9775939%" cy="37.2628945%" fx="42.9775939%" fy="37.2628945%" r="62.3230999%" gradientTransform="translate(0.429776,0.372629),scale(1.000000,0.729730),rotate(39.030749),translate(-0.429776,-0.372629)" id="radialGradient-9">
            <stop stop-color="#FFFFFF" stop-opacity="0.5" offset="0%"></stop>
            <stop stop-color="#000000" stop-opacity="0.5" offset="100%"></stop>
        </radialGradient>
        <rect id="path-10" x="2" y="2" width="54" height="74" rx="1"></rect>
    </defs>
    <g id="Page-1" stroke="none" stroke-width="1" fill="none" fill-rule="evenodd">
        <g id="Group-11-Copy">
            <g id="Group-6" opacity="0.200000003" transform="translate(0.000000, 15.000000)">
                <g id="Group-3">
                    <g id="Rectangle-6">
                        <use fill="#A6A6A6" xlink:href="#path-2"></use>
                        <use fill="url(#radialGradient-1)" style="mix-blend-mode: overlay;" xlink:href="#path-2"></use>
                    </g>
                    <rect id="Rectangle-6" fill="#FFFFFF" x="4" y="8" width="34" height="48" rx="2"></rect>
                    <rect id="Rectangle-6" fill="#FFFFFF" x="15" y="3" width="12" height="2" rx="1"></rect>
                    <g id="Rectangle-6">
                        <use fill="#A6A6A6" xlink:href="#path-4"></use>
                        <use fill="url(#radialGradient-3)" style="mix-blend-mode: overlay;" xlink:href="#path-4"></use>
                    </g>
                    <g id="Group-10" transform="translate(16.000000, 23.000000)" stroke="#FFFFFF" stroke-width="2">
                        <path d="M1,4 C1,1.790861 2.790861,0 5,0 C7.209139,0 9,1.790861 9,4 C9,6.209139 7.209139,8 5,8 C2.790861,8 1,6.209139 1,4 Z" id="Combined-Shape"></path>
                        <path d="M0,14 L1.54043445e-14,13 C1.54043445e-14,10.2385763 2.23857625,8 5,8 C7.76142375,8 10,10.2385763 10,13 L10,14" id="Path"></path>
                    </g>
                </g>
            </g>
            <g id="Group-6" opacity="0.200000003" transform="translate(164.000000, 15.000000)">
                <g id="Group-3">
                    <g id="Rectangle-6">
                        <use fill="#A6A6A6" xlink:href="#path-5"></use>
                        <use fill="url(#radialGradient-1)" style="mix-blend-mode: overlay;" xlink:href="#path-5"></use>
                    </g>
                    <rect id="Rectangle-6" fill="#FFFFFF" x="4" y="8" width="34" height="48" rx="2"></rect>
                    <rect id="Rectangle-6" fill="#FFFFFF" x="15" y="3" width="12" height="2" rx="1"></rect>
                    <g id="Rectangle-6">
                        <use fill="#A6A6A6" xlink:href="#path-6"></use>
                        <use fill="url(#radialGradient-3)" style="mix-blend-mode: overlay;" xlink:href="#path-6"></use>
                    </g>
                    <g id="Group-10" transform="translate(16.000000, 23.000000)" stroke="#FFFFFF" stroke-width="2">
                        <path d="M1,4 C1,1.790861 2.790861,0 5,0 C7.209139,0 9,1.790861 9,4 C9,6.209139 7.209139,8 5,8 C2.790861,8 1,6.209139 1,4 Z" id="Combined-Shape"></path>
                        <path d="M0,14 L1.54043445e-14,13 C1.54043445e-14,10.2385763 2.23857625,8 5,8 C7.76142375,8 10,10.2385763 10,13 L10,14" id="Path"></path>
                    </g>
                </g>
            </g>
            <g id="Group-6" transform="translate(33.000000, 10.000000)">
                <g id="Group-3">
                    <rect id="Rectangle-6" fill="#A6A6A6" x="0" y="0" width="52" height="70" rx="6"></rect>
                    <rect id="Rectangle-6" fill="#D9D9D9" x="4" y="8" width="44" height="58" rx="2"></rect>
                    <rect id="Rectangle-6" fill="#D9D9D9" x="20" y="3" width="12" height="2" rx="1"></rect>
                    <rect id="Rectangle-6" fill="#A6A6A6" x="6" y="10" width="40" height="54" rx="1"></rect>
                    <g id="Group-10" transform="translate(16.000000, 23.000000)" stroke="#D9D9D9" stroke-width="2">
                        <path d="M2,8 C2,3.581722 5.581722,0 10,0 C14.418278,0 18,3.581722 18,8 C18,12.418278 14.418278,16 10,16 C5.581722,16 2,12.418278 2,8 Z" id="Combined-Shape"></path>
                        <path d="M0,28 L3.08086889e-14,26 C3.08086889e-14,20.4771525 4.4771525,16 10,16 C15.5228475,16 20,20.4771525 20,26 L20,28" id="Path"></path>
                    </g>
                    <g id="Group-9" transform="translate(13.000000, 22.000000)"></g>
                </g>
            </g>
            <g id="Group-6" transform="translate(121.000000, 10.000000)">
                <g id="Group-3">
                    <rect id="Rectangle-6" fill="#A6A6A6" x="0" y="0" width="52" height="70" rx="6"></rect>
                    <rect id="Rectangle-6" fill="#D9D9D9" x="4" y="8" width="44" height="58" rx="2"></rect>
                    <rect id="Rectangle-6" fill="#D9D9D9" x="20" y="3" width="12" height="2" rx="1"></rect>
                    <rect id="Rectangle-6" fill="#A6A6A6" x="6" y="10" width="40" height="54" rx="1"></rect>
                    <g id="Group-10" transform="translate(16.000000, 23.000000)" stroke="#D9D9D9" stroke-width="2">
                        <path d="M2,8 C2,3.581722 5.581722,0 10,0 C14.418278,0 18,3.581722 18,8 C18,12.418278 14.418278,16 10,16 C5.581722,16 2,12.418278 2,8 Z" id="Combined-Shape"></path>
                        <path d="M0,28 L3.08086889e-14,26 C3.08086889e-14,20.4771525 4.4771525,16 10,16 C15.5228475,16 20,20.4771525 20,26 L20,28" id="Path"></path>
                    </g>
                    <g id="Group-9" transform="translate(13.000000, 22.000000)"></g>
                </g>
            </g>
            <g id="Group-6" transform="translate(68.000000, 0.000000)">
                <g id="Group-3">
                    <g id="Rectangle-6">
                        <use fill="#272C36" xlink:href="#path-8"></use>
                        <use fill="url(#radialGradient-7)" style="mix-blend-mode: overlay;" xlink:href="#path-8"></use>
                    </g>
                    <g id="Group-10" transform="translate(6.000000, 6.000000)">
                        <rect id="Rectangle-6" fill="#FFFFFF" x="0" y="0" width="58" height="78" rx="2"></rect>
                        <g id="Rectangle-6">
                            <use fill="#272C36" xlink:href="#path-10"></use>
                            <use fill="url(#radialGradient-9)" style="mix-blend-mode: overlay;" xlink:href="#path-10"></use>
                        </g>
                        <g id="Group-13" transform="translate(8.000000, 16.000000)" fill="#FFFFFF">
                            <rect id="Rectangle-6" x="0" y="0" width="10" height="2" rx="1"></rect>
                            <rect id="Rectangle-6" x="32" y="0" width="10" height="2" rx="1"></rect>
                        </g>
                        <rect id="Rectangle-6" fill="#FFFFFF" x="0" y="28" width="58" height="40"></rect>
                        <g id="Group-12" transform="translate(23.000000, 6.000000)" fill="#FFFFFF">
                            <path d="M1,5 C1,2.23857625 3.23857625,0 6,0 C8.76142375,0 11,2.23857625 11,5 C11,7.76142375 8.76142375,10 6,10 C3.23857625,10 1,7.76142375 1,5 Z" id="Combined-Shape"></path>
                            <path d="M0,17 C1.84852134e-14,13.6862915 2.6862915,11 6,11 C9.3137085,11 12,13.6862915 12,17 L12,19 L0,19" id="Path"></path>
                        </g>
                    </g>
                    <g id="Group-9" transform="translate(20.000000, 29.000000)"></g>
                </g>
                <path d="M17,56 L17,44 L21.2,44 L21.2,56 C21.2,57.1520058 21.6079959,58.1399959 22.424,58.964 C23.2400041,59.7880041 24.2319942,60.2 25.4,60.2 C26.5520058,60.2 27.5399959,59.7880041 28.364,58.964 C29.1880041,58.1399959 29.6,57.1520058 29.6,56 L29.6,44 L33.8,44 L33.8,56 C33.8,58.3200116 32.9800082,60.2999918 31.34,61.94 C29.6999918,63.5800082 27.7200116,64.4 25.4,64.4 C23.0799884,64.4 21.1000082,63.5800082 19.46,61.94 C17.8199918,60.2999918 17,58.3200116 17,56 Z M53.48,44 L46.256,63.8 L42.968,63.8 L35.744,44 L40.208,44 L44.6,56.048 L49.016,44 L53.48,44 Z" id="UV" fill="#272C36"></path>
            </g>
        </g>
    </g>
</svg>