<svg viewBox="0 0 296 154" version="1.1" xmlns="http://www.w3.org/2000/svg" xmlns:xlink="http://www.w3.org/1999/xlink" id="B1L2_gmCf"><style>@-webkit-keyframes BJGxUhulmCz_SJZ259LAG_Animation{0%{-webkit-transform: scale(1, 1);transform: scale(1, 1);}38.33%{-webkit-transform: scale(1.14, 1.12);transform: scale(1.14, 1.12);}75%{-webkit-transform: scale(1, 1);transform: scale(1, 1);}100%{-webkit-transform: scale(1, 1);transform: scale(1, 1);}}@keyframes BJGxUhulmCz_SJZ259LAG_Animation{0%{-webkit-transform: scale(1, 1);transform: scale(1, 1);}38.33%{-webkit-transform: scale(1.14, 1.12);transform: scale(1.14, 1.12);}75%{-webkit-transform: scale(1, 1);transform: scale(1, 1);}100%{-webkit-transform: scale(1, 1);transform: scale(1, 1);}}@-webkit-keyframes BJbeIndgQAG_ryJhncICz_Animation{0%{-webkit-transform: scale(1.05, 1.05);transform: scale(1.05, 1.05);}38.33%{-webkit-transform: scale(1, 1);transform: scale(1, 1);}75%{-webkit-transform: scale(1.05, 1.05);transform: scale(1.05, 1.05);}100%{-webkit-transform: scale(1.05, 1.05);transform: scale(1.05, 1.05);}}@keyframes BJbeIndgQAG_ryJhncICz_Animation{0%{-webkit-transform: scale(1.05, 1.05);transform: scale(1.05, 1.05);}38.33%{-webkit-transform: scale(1, 1);transform: scale(1, 1);}75%{-webkit-transform: scale(1.05, 1.05);transform: scale(1.05, 1.05);}100%{-webkit-transform: scale(1.05, 1.05);transform: scale(1.05, 1.05);}}@-webkit-keyframes ryoU2uem0z_SJ5TWo8RG_Animation{0%{-webkit-transform: translate(0px, 0px);transform: translate(0px, 0px);}50%{-webkit-transform: translate(0px, 3px);transform: translate(0px, 3px);}100%{-webkit-transform: translate(0px, 0px);transform: translate(0px, 0px);}}@keyframes ryoU2uem0z_SJ5TWo8RG_Animation{0%{-webkit-transform: translate(0px, 0px);transform: translate(0px, 0px);}50%{-webkit-transform: translate(0px, 3px);transform: translate(0px, 3px);}100%{-webkit-transform: translate(0px, 0px);transform: translate(0px, 0px);}}#B1L2_gmCf *{-webkit-animation-duration: 2s;animation-duration: 2s;-webkit-animation-iteration-count: infinite;animation-iteration-count: infinite;-webkit-animation-timing-function: cubic-bezier(0, 0, 1, 1);animation-timing-function: cubic-bezier(0, 0, 1, 1);}#ryg8h_lmRG{stroke: none;stroke-width: 1;fill: none;}#Byb8n_gmAG{-webkit-transform:  translate(-534.000000px, -230.000000px);transform:  translate(-534.000000px, -230.000000px);}#ByzU3dxXCG{-webkit-transform:  translate(534.000000px, 218.000000px);transform:  translate(534.000000px, 218.000000px);}#SkELndgXCf{fill: #f2faff;}#SyrLhOlXAG{stroke: #3498ff;stroke-width: 3;}#B1LU2Og7AM{stroke: #3498ff;fill: #3498ff;-webkit-transform:  translate(223.165064px, 67.982051px) scale(-1, 1) rotate(60.000000deg) translate(-223.165064px, -67.982051px);transform:  translate(223.165064px, 67.982051px) scale(-1, 1) rotate(60.000000deg) translate(-223.165064px, -67.982051px);}#S1P8ndxQRG{stroke: #3498ff;fill: #3498ff;-webkit-transform:  translate(14.200686px, 113.139058px) scale(-1, 1) rotate(50.000000deg) translate(-14.200686px, -113.139058px);transform:  translate(14.200686px, 113.139058px) scale(-1, 1) rotate(50.000000deg) translate(-14.200686px, -113.139058px);}#rJd8nOxX0z{stroke: #3498ff;fill: #3498ff;-webkit-transform:  translate(3.200686px, 107.139058px) scale(-1, 1) rotate(50.000000deg) translate(-3.200686px, -107.139058px);transform:  translate(3.200686px, 107.139058px) scale(-1, 1) rotate(50.000000deg) translate(-3.200686px, -107.139058px);}#HyY83OlX0G{stroke: #3498ff;fill: #3498ff;-webkit-transform:  translate(236.278116px, 62.401373px) scale(-1, 1) rotate(40.000000deg) translate(-236.278116px, -62.401373px);transform:  translate(236.278116px, 62.401373px) scale(-1, 1) rotate(40.000000deg) translate(-236.278116px, -62.401373px);}#H15I3_emRM{stroke: #3498ff;fill: #3498ff;-webkit-transform:  translate(259.427947px, 52.211208px) scale(-1, 1) rotate(80.000000deg) translate(-259.427947px, -52.211208px);transform:  translate(259.427947px, 52.211208px) scale(-1, 1) rotate(80.000000deg) translate(-259.427947px, -52.211208px);}#ryoU2uem0z{-webkit-transform:  translate(58.000000px, 0.000000px);transform:  translate(58.000000px, 0.000000px);}#H1hL3_lQ0z{-webkit-transform:  translate(82.000000px, 88.000000px) scale(-1, 1) translate(-82.000000px, -88.000000px);transform:  translate(82.000000px, 88.000000px) scale(-1, 1) translate(-82.000000px, -88.000000px);}#rka8n_eQAf{fill: #FFFFFF;}#HJAI3_lXRf{stroke: #3498ff;stroke-width: 3;}#SyJgLnulX0M{stroke: #3498ff;stroke-width: 2;-webkit-transform:  translate(51.000000px, 96.000000px) scale(1, -1) translate(-51.000000px, -96.000000px);transform:  translate(51.000000px, 96.000000px) scale(1, -1) translate(-51.000000px, -96.000000px);}#rJee82Oe70f{stroke: #3498ff;stroke-width: 2;-webkit-transform:  translate(110.000000px, 96.000000px) scale(1, -1) translate(-110.000000px, -96.000000px);transform:  translate(110.000000px, 96.000000px) scale(1, -1) translate(-110.000000px, -96.000000px);}#BJbeIndgQAG{stroke: #3498ff;stroke-width: 2;}#BJGxUhulmCz{stroke: #3498ff;fill: #F7F7FA;-webkit-transform:  translate(47.021427px, 105.732908px) rotate(17.000000deg) translate(-47.021427px, -105.732908px);transform:  translate(47.021427px, 105.732908px) rotate(17.000000deg) translate(-47.021427px, -105.732908px);}#HyQg82ulm0f{-webkit-transform:  translate(51.000000px, 0.000000px);transform:  translate(51.000000px, 0.000000px);}#S14xU3_xXCz{-webkit-transform:  translate(50.540083px, 34.505539px) rotate(20.000000deg) translate(-50.540083px, -34.505539px);transform:  translate(50.540083px, 34.505539px) rotate(20.000000deg) translate(-50.540083px, -34.505539px);}#S1SlL2OgXCM{fill: #cce9ff;}#HJUlUhdgmRf{stroke: #3498ff;stroke-width: 2;}#SkveI2dgQCG{-webkit-transform:  translate(42.797687px, 53.549981px) rotate(20.000000deg) translate(-42.797687px, -53.549981px);transform:  translate(42.797687px, 53.549981px) rotate(20.000000deg) translate(-42.797687px, -53.549981px);}#HkugIh_emCf{fill: #FFFFFF;}#BJYgL2dlQCG{stroke: #3498ff;stroke-width: 2;}#HJ5lU2OgXCG{fill: #cce9ff;}#H1olL3uxmRM{fill: #3498ff;}#rk3gInOemRM{stroke: #3498ff;stroke-width: 2;fill: #FFFFFF;}#SyplL2_x70M{-webkit-transform:  translate(187.000000px, 86.000000px);transform:  translate(187.000000px, 86.000000px);}#HyyZ82uxmRz{fill: #f2faff;}#rylWIhuxm0f{stroke: #3498ff;stroke-width: 3;}#S1Z-U2ulQAG{stroke: #3498ff;stroke-width: 2;-webkit-transform:  translate(65.000000px, 57.500000px) scale(1, -1) translate(-65.000000px, -57.500000px);transform:  translate(65.000000px, 57.500000px) scale(1, -1) translate(-65.000000px, -57.500000px);}#rJGW82dxXCz{stroke: #3498ff;stroke-width: 2;-webkit-transform:  translate(48.000000px, 41.000000px) scale(1, -1) translate(-48.000000px, -41.000000px);transform:  translate(48.000000px, 41.000000px) scale(1, -1) translate(-48.000000px, -41.000000px);}#BJXbLn_lX0f{stroke: #3498ff;stroke-width: 2;-webkit-transform:  translate(79.000000px, 41.000000px) scale(1, -1) translate(-79.000000px, -41.000000px);transform:  translate(79.000000px, 41.000000px) scale(1, -1) translate(-79.000000px, -41.000000px);}#B1LU2Og7AM_rJSaevbym{-webkit-transform-origin: 50% 50%;transform-origin: 50% 50%;transform-box: fill-box;-webkit-transform: scale(1, 1);transform: scale(1, 1);}#B1LU2Og7AM_rJY0lPZJ7{-webkit-transform-origin: 50% 50%;transform-origin: 50% 50%;transform-box: fill-box;-webkit-transform: translate(0px, 0px);transform: translate(0px, 0px);}#B1LU2Og7AM_B1TyzvW1Q{-webkit-transform-origin: 50% 50%;transform-origin: 50% 50%;transform-box: fill-box;-webkit-transform: rotate(0deg);transform: rotate(0deg);}#ryoU2uem0z_SJ5TWo8RG{-webkit-animation-name: ryoU2uem0z_SJ5TWo8RG_Animation;animation-name: ryoU2uem0z_SJ5TWo8RG_Animation;-webkit-transform-origin: 50% 50%;transform-origin: 50% 50%;transform-box: fill-box;-webkit-transform: translate(0px, 0px);transform: translate(0px, 0px);}#BJbeIndgQAG_ryJhncICz{-webkit-animation-name: BJbeIndgQAG_ryJhncICz_Animation;animation-name: BJbeIndgQAG_ryJhncICz_Animation;-webkit-transform-origin: 0% 50%;transform-origin: 0% 50%;transform-box: fill-box;-webkit-transform: scale(1.05, 1.05);transform: scale(1.05, 1.05);}#BJGxUhulmCz_SJZ259LAG{-webkit-animation-name: BJGxUhulmCz_SJZ259LAG_Animation;animation-name: BJGxUhulmCz_SJZ259LAG_Animation;-webkit-animation-timing-function: cubic-bezier(0.42, 0, 1, 1);animation-timing-function: cubic-bezier(0.42, 0, 1, 1);-webkit-transform-origin: 100% 50%;transform-origin: 100% 50%;transform-box: fill-box;-webkit-transform: scale(1, 1);transform: scale(1, 1);}</style>
    <!-- Generator: Sketch 49.2 (51160) - http://www.bohemiancoding.com/sketch -->
    <title>Group</title>
    <desc>Created with Sketch.</desc>
    <defs>
        <path d="M19,165.945958 C8.37848747,165.177848 0,156.317374 0,145.5 C0,134.178163 9.17816263,125 20.5,125 C20.731714,125 20.96253,125.003844 21.1923879,125.011473 C22.657361,113.720842 32.3102496,105 44,105 C53.9129906,105 62.3612415,111.271297 65.5937454,120.062883 C66.0567136,120.021272 66.525787,120 67,120 C75.2702092,120 81.9771964,126.469851 81.999942,134.459233 C87.8970232,137.04873 92,142.809307 92,149.5 C92,158.286877 84.9233795,165.469533 76,165.971927 L76,166 L19,166 L19,165.945958 Z" id="path-1"/>
        <path d="M34.6055046,142.931941 C15.298,141.764081 0,125.712342 0,106.082192 C0,85.6930493 16.5038521,69.1643836 36.8623853,69.1643836 C37.2243839,69.1643836 37.5851637,69.1696094 37.9446537,69.1799899 C40.5245732,48.7769572 57.9180125,33 78.9908257,33 C96.8400875,33 112.049559,44.3192782 117.852958,60.1813784 C118.435228,60.1428548 119.022672,60.1232877 119.614679,60.1232877 C133.730478,60.1232877 145.251892,71.2478726 145.91483,85.220526 C156.558747,89.8641039 164,100.493253 164,112.863014 C164,129.001928 151.333049,142.177869 135.412844,142.962984 L135.412844,143 L34.6055046,143 L34.6055046,142.931941 Z" id="path-2"/>
        <path d="M53.1993951,13.176663 L61.6575227,15.4468404 C67.0995288,16.9074851 71.672934,20.5959385 74.2530368,25.6051283 L84.0713758,44.6671299 C86.3474066,49.0859734 84.6103138,54.5132414 80.1914703,56.7892722 C78.9169384,57.4457503 77.5040168,57.7882483 76.0703519,57.7882483 L17.3842951,57.7882483 C14.6228714,57.7882483 12.3842951,55.549672 12.3842951,52.7882483 C12.3842951,51.7731821 12.6932442,50.7821573 13.2700724,49.9469157 L33.722108,20.3325614 C38.0481193,14.068538 45.8469775,11.2032602 53.1993951,13.176663 Z" id="path-3"/>
        <rect id="path-4" x="1.01736505" y="44.5499811" width="83.5606437" height="18" rx="6"/>
        <path d="M23,72.9548336 C10.1675732,72.1797994 0,61.5272817 0,48.5 C0,34.9690236 10.9690236,24 24.5,24 C24.7405966,24 24.9803832,24.0034681 25.2193125,24.010357 C26.9340132,10.4701643 38.4942877,0 52.5,0 C64.3632289,0 74.4719631,7.51188463 78.3290999,18.0385511 C78.7160969,18.0129854 79.106532,18 79.5,18 C88.8818423,18 96.5393674,25.3826791 96.9799783,34.65544 C104.054289,37.7370871 109,44.7909773 109,53 C109,63.7103702 100.581112,72.4544037 90,72.975435 L90,73 L23,73 L23,72.9548336 Z" id="path-5"/>
    </defs>
    <g id="ryg8h_lmRG" fill-rule="evenodd">
        <g id="Byb8n_gmAG">
            <g id="ByzU3dxXCG">
                <g id="H1XUhdgmCM">
                    <use fill-rule="evenodd" xlink:href="#path-1" id="SkELndgXCf"/>
                    <path d="M19.801463,164.5 L75.4591849,164.5 L75.9156823,164.474299 C84.0915618,164.01399 90.5,157.44505 90.5,149.5 C90.5,143.560524 86.8985346,138.248524 81.3968526,135.832653 L80.5027282,135.44003 L80.4999481,134.463504 C80.4795844,127.310764 74.4528594,121.5 67,121.5 C66.5731051,121.5 66.1488282,121.519039 65.7280214,121.556861 L64.5827224,121.659798 L64.1858933,120.580524 C61.1010672,112.190584 53.0877992,106.5 44,106.5 C33.1661942,106.5 24.0611427,114.559309 22.6799186,125.204482 L22.5045773,126.555847 L21.1426337,126.510647 C20.9289072,126.503554 20.714678,126.5 20.5,126.5 C10.0065898,126.5 1.5,135.00659 1.5,145.5 C1.5,155.475544 9.21560473,163.734468 19.1081922,164.449865 L19.801463,164.5 Z" id="SyrLhOlXAG"/>
                </g>
                <polygon id="B1LU2Og7AM" stroke-linecap="round" stroke-linejoin="round" points="222.665064 65.4820508 222.165064 67.9820508 225.165064 66.9820508 223.665064 70.4820508 224.165064 67.9820508 221.165064 68.9820508"/>
                <polygon id="S1P8ndxQRG" stroke-linecap="round" stroke-linejoin="round" points="13.7006863 110.639058 13.2006863 113.139058 16.2006863 112.139058 14.7006863 115.639058 15.2006863 113.139058 12.2006863 114.139058"/>
                <polygon id="rJd8nOxX0z" stroke-linecap="round" stroke-linejoin="round" points="2.70068633 104.639058 2.20068633 107.139058 5.20068633 106.139058 3.70068633 109.639058 4.20068633 107.139058 1.20068633 108.139058"/>
                <polygon id="HyY83OlX0G" stroke-linecap="round" stroke-linejoin="round" points="235.278116 57.4013727 234.278116 62.4013727 240.278116 60.4013727 237.278116 67.4013727 238.278116 62.4013727 232.278116 64.4013727"/>
                <polygon id="H15I3_emRM" stroke-linecap="round" stroke-linejoin="round" points="257.927947 44.7112079 256.427947 52.2112079 265.427947 49.2112079 260.927947 59.7112079 262.427947 52.2112079 253.427947 55.2112079"/>
                <g id="ryoU2uem0z_SJ5TWo8RG" data-animator-group="true" data-animator-type="0"><g id="ryoU2uem0z">
                    <g id="H1hL3_lQ0z">
                        <use fill-rule="evenodd" xlink:href="#path-2" id="rka8n_eQAf"/>
                        <path d="M35.776006,141.5 L134.625292,141.5 L135.33896,141.464805 C150.516822,140.716298 162.5,128.145842 162.5,112.863014 C162.5,101.358583 155.664833,91.1106518 145.315026,86.5953843 L144.460689,86.2226664 L144.416515,85.291614 C143.789214,72.0700664 132.881052,61.6232877 119.614679,61.6232877 C119.057946,61.6232877 118.503526,61.6416155 117.951983,61.6781062 L116.830465,61.752307 L116.444279,60.6967657 C110.734329,45.0900822 95.8612647,34.5 78.9908257,34.5 C58.8524234,34.5 41.9405578,49.5358445 39.4328038,69.3681633 L39.2620369,70.7186555 L37.9013582,70.679365 C37.5556879,70.6693835 37.2093413,70.6643836 36.8623853,70.6643836 C17.3327841,70.6643836 1.5,86.5209724 1.5,106.082192 C1.5,124.835745 16.0970001,140.309669 34.6960701,141.434678 L35.776006,141.5 Z" id="HJAI3_lXRf"/>
                    </g>
                    <path d="M42,98 C45.0492129,95.3333333 48.0715824,94 51.0671085,94 C54.0626347,94 57.0402652,95.3333333 60,98" id="SyJgLnulX0M" stroke-linecap="round"/>
                    <path d="M101,98 C104.049213,95.3333333 107.071582,94 110.067109,94 C113.062635,94 116.040265,95.3333333 119,98" id="rJee82Oe70f" stroke-linecap="round"/>
                    <g id="BJbeIndgQAG_ryJhncICz" data-animator-group="true" data-animator-type="2"><path d="M79.8523154,122.432988 C80.4972901,123.42757 81.0053144,124.511588 80.8771386,125.320858 C80.7207042,126.308546 79.6798634,127.156159 78.588893,126.983366 C77.4979226,126.810573 76.750436,125.80602 76.9664269,124.442307 C77.0247211,124.074252 77.0532118,123.894369 77.073095,123.768831 C75.7527274,124.119062 74.1835203,124.284226 72.5,124.284226 C67.8055796,124.284226 64,123 64,120 C64,118 66,116 68.5,117.047857 C70,118 75,118 76.5,117.047857 C79,116 81,118.001035 81,120 C81,120.994195 80.5820528,121.799955 79.8523154,122.432988 Z" id="BJbeIndgQAG" stroke-linecap="round" stroke-linejoin="round"/></g>
                    <g id="BJGxUhulmCz_SJZ259LAG" data-animator-group="true" data-animator-type="2"><path d="M44.8214038,115.550124 C53.6649467,113.515515 63.5925976,107.414861 66.8749752,105.050124 C52.4323436,108.084734 49.8964452,95.6924292 40.468242,95.3623022 C33.4253599,95.1156968 26.3438863,98.8982006 27.2458101,106.460378 C28.1477339,114.022556 35.9778609,117.584734 44.8214038,115.550124 Z" id="BJGxUhulmCz" stroke-linecap="round" stroke-linejoin="round"/></g>
                    <g id="HyQg82ulm0f">
                        <g id="S14xU3_xXCz">
                            <use fill-rule="evenodd" xlink:href="#path-3" id="S1SlL2OgXCM"/>
                            <path d="M52.9401681,14.1424794 C45.9962182,12.2787101 38.6306298,14.9848058 34.5449525,20.9008279 L14.0929169,50.5151822 C13.6314544,51.1833755 13.3842951,51.9761954 13.3842951,52.7882483 C13.3842951,54.9973873 15.1751561,56.7882483 17.3842951,56.7882483 L76.0703519,56.7882483 C77.3447207,56.7882483 78.600651,56.4838056 79.7335683,55.9002695 C83.6614291,53.877131 85.2055117,49.0528928 83.1823732,45.125032 L73.3640341,26.0630303 C70.9129365,21.3043 66.5682016,17.8002693 61.3982958,16.4126568 L52.9401681,14.1424794 Z" id="HJUlUhdgmRf"/>
                        </g>
                        <g id="SkveI2dgQCG">
                            <use fill-rule="evenodd" xlink:href="#path-4" id="HkugIh_emCf"/>
                            <rect x="2.01736505" y="45.5499811" width="81.5606437" height="16" rx="6" id="BJYgL2dlQCG"/>
                        </g>
                        <path d="M76,35 L81,71 C74.8498797,73.0042118 71.183213,73.3375451 70,72 C68.816787,70.6624549 62.1501203,60.9957882 50,43" id="HJ5lU2OgXCG"/>
                        <path d="M80.3803116,69.0984253 L79.0190155,71.2751367 L78.7858783,69.5965489 C79.2951064,69.4448777 79.8266634,69.2788491 80.3803116,69.0984253 Z M74.063556,35.5958289 L76,35 L81,71 C74.8498797,73.0042118 71.183213,73.3375451 70,72 C68.816787,70.6624549 62.1501203,60.9957882 50,43 L51.9981104,42.3851968 C63.7919635,59.8493602 70.418477,69.4545297 71.4979931,70.6748522 C71.4790249,70.6534099 71.5454661,70.6872856 71.7585738,70.7314115 C72.1496651,70.8123905 72.7210135,70.8282201 73.4563382,70.7613724 C74.8035282,70.6389006 76.5864265,70.2516453 78.7858783,69.5965489 L74.063556,35.5958289 Z M80.3803116,69.0984253 L79.0190155,71.2751367 L78.7858783,69.5965489 C79.2951064,69.4448777 79.8266634,69.2788491 80.3803116,69.0984253 Z M74.063556,35.5958289 L76,35 L81,71 C74.8498797,73.0042118 71.183213,73.3375451 70,72 C68.816787,70.6624549 62.1501203,60.9957882 50,43 L51.9981104,42.3851968 C63.7919635,59.8493602 70.418477,69.4545297 71.4979931,70.6748522 C71.4790249,70.6534099 71.5454661,70.6872856 71.7585738,70.7314115 C72.1496651,70.8123905 72.7210135,70.8282201 73.4563382,70.7613724 C74.8035282,70.6389006 76.5864265,70.2516453 78.7858783,69.5965489 L74.063556,35.5958289 Z" id="H1olL3uxmRM" fill-rule="nonzero"/>
                        <circle id="rk3gInOemRM" cx="75.5" cy="74.5" r="10.5"/>
                    </g>
                </g></g>
                <g id="SyplL2_x70M">
                    <g id="S1RgUhulXAf">
                        <use fill-rule="evenodd" xlink:href="#path-5" id="HyyZ82uxmRz"/>
                        <path d="M23.7930875,71.5 L89.4642246,71.5 L89.9262269,71.4772502 C99.7466666,70.9936757 107.5,62.8725728 107.5,53 C107.5,45.5681478 103.077742,38.947832 96.3809313,36.0306282 L95.5259328,35.6581815 L95.4816688,34.7266347 C95.0775258,26.221349 88.0487756,19.5 79.5,19.5 C79.1410082,19.5 78.783548,19.5117991 78.427977,19.5352887 L77.3071343,19.6093335 L76.9206712,18.5546216 C73.1978927,8.39463763 63.5002756,1.5 52.5,1.5 C39.369143,1.5 28.342308,11.2889187 26.7074274,24.1988086 L26.5364476,25.5489564 L25.176082,25.5097339 C24.9511545,25.5032487 24.7257795,25.5 24.5,25.5 C11.7974508,25.5 1.5,35.7974508 1.5,48.5 C1.5,60.6779676 10.9937625,70.726965 23.09043,71.4575619 L23.7930875,71.5 Z" id="rylWIhuxm0f"/>
                    </g>
                    <path d="M56,58 C59.0492129,57.3333333 62.0715824,57 65.0671085,57 C68.0626347,57 71.0402652,57.3333333 74,58" id="S1Z-U2ulQAG" stroke-linecap="round"/>
                    <path d="M43,42 C44.6940072,40.6666667 46.3731013,40 48.0372825,40 C49.7014637,40 51.3557029,40.6666667 53,42" id="rJGW82dxXCz" stroke-linecap="round"/>
                    <path d="M74,42 C75.6940072,40.6666667 77.3731013,40 79.0372825,40 C80.7014637,40 82.3557029,40.6666667 84,42" id="BJXbLn_lX0f" stroke-linecap="round"/>
                </g>
            </g>
        </g>
    </g>
<script>(function(){var a=document.querySelector('#B1L2_gmCf'),b=a.querySelectorAll('style'),c=function(d){b.forEach(function(f){var g=f.textContent;g&amp;&amp;(f.textContent=g.replace(/transform-box:[^;\r\n]*/gi,'transform-box: '+d))})};c('initial'),window.requestAnimationFrame(function(){return c('fill-box')})})();</script></svg>